<svg width="64" height="33" viewBox="0 0 64 33" fill="none" xmlns="http://www.w3.org/2000/svg">
<path d="M62.0221 32.9444H1.18832C0.538703 32.9444 0 32.4136 0 31.7561C0 31.1065 0.530781 30.5677 1.18832 30.5677H62.0221C62.6717 30.5677 63.2104 31.0985 63.2104 31.7561C63.2025 32.4057 62.6717 32.9444 62.0221 32.9444Z" fill="#242424"/>
<path d="M60.5937 30.7615C59.8569 14.8301 47.2529 2.15479 31.7968 2.15479C16.3408 2.15479 3.73676 14.8301 3 30.7615L60.5937 30.7615Z" fill="#242424"/>
<path d="M31.7969 3.85014C32.8601 3.85014 33.722 2.98826 33.722 1.92507C33.722 0.861884 32.8601 0 31.7969 0C30.7337 0 29.8718 0.861884 29.8718 1.92507C29.8718 2.98826 30.7337 3.85014 31.7969 3.85014Z" fill="#242424"/>
<path d="M31.3215 4.00061C18.5114 4.00061 8.06219 14.7351 6.16089 28.3452L12.5461 28.4007C14.5662 15.5431 24.4451 6.93179 31.3215 4.00061Z" fill="white"/>
</svg>
